<svg width="60" height="60" viewBox="0 0 60 60" fill="none" xmlns="http://www.w3.org/2000/svg">
<g clip-path="url(#clip0_2_3)">
<path d="M0.0275 0V21.015H21.525V0H0.0275ZM38.5025 0V21.015H60V0H38.5025ZM22.43 1.645L22.46 21.3175L28.81 27.3925L28.8275 13.4825L22.43 1.645ZM37.595 1.645L31.2075 13.4825L31.2175 27.3925L37.5675 21.3175L37.595 1.645ZM0.83 21.92L14.63 28.6125L28.7675 28.5975L21.835 21.9225L0.83 21.92ZM38.19 21.92L31.325 28.725L45.4625 28.5L59.2075 21.9225L38.19 21.92ZM14.8825 31.5575L0.795 38.08H21.8075L28.6775 31.275L14.8825 31.5575ZM31.295 31.275L38.1625 38.08H59.1675L45.2025 31.5575L31.295 31.275ZM28.78 32.6075L22.43 38.6825L22.4025 58.365L28.79 46.515L28.78 32.6075ZM31.19 32.6075L31.17 46.5175L37.5675 58.3675L37.54 38.6825L31.19 32.6075ZM0 38.995V60H21.495V38.995H0ZM38.475 38.995V60H59.97V38.995H38.475Z" fill="#36DCCF"/>
</g>
<defs>
<clipPath id="clip0_2_3">
<rect width="60" height="60" fill="white"/>
</clipPath>
</defs>
</svg>
